<svg width="24" height="18" viewBox="0 0 24 18" fill="none" xmlns="http://www.w3.org/2000/svg">
<g clip-path="url(#clip0_5224_9023)">
<path fill-rule="evenodd" clip-rule="evenodd" d="M0 0H24V18H0V0Z" fill="#229E45"/>
<path fill-rule="evenodd" clip-rule="evenodd" d="M12.0529 16.3499L23.3591 9.01116L11.9854 1.6499L0.641602 9.02615L12.0529 16.3499Z" fill="#F8E509"/>
<path fill-rule="evenodd" clip-rule="evenodd" d="M16.9803 9C16.9803 11.6362 14.839 13.7737 12.1953 13.7737C11.2506 13.7723 10.3275 13.4907 9.54271 12.9647C8.75796 12.4387 8.14679 11.6918 7.78645 10.8185C7.42612 9.94514 7.33279 8.98459 7.51829 8.05823C7.70378 7.13188 8.15975 6.28132 8.82857 5.61408C9.49739 4.94683 10.349 4.49286 11.2758 4.30955C12.2026 4.12624 13.1629 4.22182 14.0354 4.58421C14.9079 4.9466 15.6533 5.55953 16.1775 6.34552C16.7017 7.13151 16.981 8.05526 16.9803 9Z" fill="#2B49A3"/>
<path fill-rule="evenodd" clip-rule="evenodd" d="M10.6238 11.8611L10.4738 11.7748L10.3238 11.8498L10.3575 11.6811L10.2375 11.5536L10.4063 11.5348L10.4888 11.3848L10.56 11.5423L10.725 11.5723L10.6013 11.6848M13.8263 12.6711L13.68 12.5848L13.53 12.6598L13.56 12.4911L13.4438 12.3673L13.6125 12.3486L13.6913 12.1948L13.7663 12.3523L13.9313 12.3823L13.8038 12.4986M12.4463 11.3736L12.3188 11.2986L12.1875 11.3661L12.2175 11.2198L12.1125 11.1111L12.2625 11.0961L12.33 10.9611L12.39 11.0998L12.5363 11.1261L12.4238 11.2273M15.6863 10.9086L15.5588 10.8336L15.4275 10.9011L15.4575 10.7548L15.3563 10.6498L15.5025 10.6348L15.57 10.5036L15.63 10.6386L15.7725 10.6648L15.6638 10.7623M12.39 9.93735L12.24 9.85484L12.09 9.92984L12.12 9.75735L12.0038 9.63359L12.1725 9.61484L12.2513 9.4611L12.3263 9.61859L12.4913 9.64859L12.3638 9.76859M8.44128 8.45609L8.29128 8.37359L8.14128 8.44859L8.17878 8.27609L8.05503 8.15234L8.22753 8.13359L8.30253 7.97984L8.37753 8.13734L8.54253 8.16734L8.41878 8.28359M8.91753 10.4286L8.76753 10.3423L8.61753 10.4173L8.65128 10.2486L8.53128 10.1248L8.70003 10.1023L8.77878 9.95234L8.85378 10.1098L9.01878 10.1398L8.89503 10.2561M13.845 7.73234L13.71 7.65734L13.575 7.72484L13.605 7.57484L13.5 7.46234L13.65 7.44359L13.7213 7.30859L13.785 7.45109L13.935 7.47734L13.8225 7.57859M13.5713 9.01484L13.47 8.95484L13.3613 9.00734L13.3838 8.88734L13.3013 8.80109L13.4213 8.78609L13.4775 8.68109L13.5263 8.79359L13.6388 8.81234L13.5563 8.89484M8.22378 10.7848L8.12253 10.7286L8.02128 10.7773L8.04378 10.6648L7.96503 10.5823L8.07753 10.5673L8.13003 10.4661L8.17878 10.5711L8.29128 10.5936L8.20503 10.6686M15.7125 11.2423L15.63 11.2011L15.5475 11.2386L15.5663 11.1523L15.5025 11.0923L15.5925 11.0811L15.6375 11.0061L15.675 11.0811L15.7688 11.0998L15.6975 11.1561" fill="#FFFFEF"/>
<path fill-rule="evenodd" clip-rule="evenodd" d="M8.22378 10.7851L8.12253 10.7288L8.02128 10.7776L8.04378 10.6651L7.96503 10.5826L8.07753 10.5676L8.13003 10.4663L8.17878 10.5713L8.29128 10.5938L8.20503 10.6688" fill="#FFFFEF"/>
<path fill-rule="evenodd" clip-rule="evenodd" d="M8.22378 10.7848L8.12253 10.7286L8.02128 10.7773L8.04378 10.6648L7.96503 10.5823L8.07753 10.5673L8.13003 10.4661L8.17878 10.5711L8.29128 10.5936L8.20503 10.6686M9.79128 10.7811L9.69378 10.7286L9.59253 10.7773L9.61503 10.6648L9.53628 10.5823L9.64878 10.5673L9.70128 10.4661L9.75003 10.5711L9.86253 10.5898L9.77628 10.6686M9.59628 11.3061L9.49878 11.2498L9.39753 11.3023L9.42003 11.1898L9.34128 11.1036L9.45378 11.0886L9.50628 10.9873L9.55503 11.0923L9.66753 11.1148L9.58128 11.1898M12.8588 10.3573L12.7613 10.2973L12.6563 10.3498L12.6788 10.2373L12.6038 10.1511L12.7163 10.1398L12.7688 10.0386L12.8138 10.1436L12.9263 10.1623L12.8438 10.2411M11.9025 10.3536L11.8013 10.2973L11.7 10.3498L11.7225 10.2373L11.6475 10.1511L11.76 10.1398L11.8125 10.0348L11.8575 10.1436L11.97 10.1623L11.8875 10.2411M9.30753 10.0236L9.24378 9.98609L9.18003 10.0161L9.19503 9.94484L9.14628 9.89234L9.21753 9.88484L9.24753 9.82109L9.27753 9.88859L9.34878 9.89984L9.29628 9.94859M15.5888 11.6511L15.4913 11.5948L15.39 11.6473L15.4125 11.5348L15.3338 11.4486L15.4463 11.4336L15.4988 11.3323L15.5475 11.4373L15.66 11.4598L15.5738 11.5348M14.7938 11.7598L14.7113 11.7073L14.625 11.7523L14.6438 11.6548L14.58 11.5873L14.6738 11.5761L14.7188 11.4898L14.7563 11.5798L14.85 11.5948L14.7788 11.6623M15.1688 11.7486L15.0938 11.7036L15.015 11.7411L15.03 11.6548L14.97 11.5911L15.0563 11.5798L15.0975 11.5048L15.135 11.5798L15.2213 11.5986L15.1575 11.6586M16.2488 10.8036L16.1738 10.7661L16.0988 10.8036L16.1175 10.7173L16.0575 10.6536L16.1438 10.6423L16.1813 10.5673L16.2188 10.6461L16.2975 10.6611L16.2375 10.7211M14.7825 12.2886L14.6888 12.2361L14.5875 12.2811L14.61 12.1761L14.535 12.1011L14.6475 12.0898L14.6963 11.9961L14.7413 12.0936L14.8538 12.1123L14.7675 12.1836M14.79 12.7161L14.7 12.6636L14.61 12.7123L14.6325 12.6073L14.5613 12.5323L14.6625 12.5173L14.7075 12.4236L14.7488 12.5211L14.85 12.5398L14.775 12.6148M14.0625 11.7486L13.9913 11.7036L13.9163 11.7411L13.9313 11.6586L13.875 11.5948L13.9575 11.5873L13.995 11.5123L14.0325 11.5873L14.115 11.6023L14.055 11.6623M13.3875 11.7486L13.3125 11.7036L13.2375 11.7411L13.2563 11.6586L13.1963 11.5948L13.2825 11.5873L13.32 11.5123L13.3575 11.5873L13.4363 11.6023L13.3763 11.6623M12.2363 10.7398L12.1613 10.6986L12.0863 10.7361L12.105 10.6498L12.045 10.5898L12.1275 10.5786L12.165 10.5036L12.2025 10.5786L12.285 10.5973L12.225 10.6536M12.3638 12.7911L12.3038 12.7573L12.2363 12.7911L12.2513 12.7161L12.2025 12.6636L12.2738 12.6561L12.3075 12.5923L12.3375 12.6598L12.4088 12.6711L12.3563 12.7198M10.6238 9.47234L10.4738 9.38609L10.3238 9.46109L10.3575 9.29234L10.2375 9.16859L10.4063 9.14609L10.4888 8.99609L10.56 9.15359L10.725 9.18359L10.6013 9.29984" fill="#FFFFEF"/>
<path fill-rule="evenodd" clip-rule="evenodd" d="M16.6653 10.7174C16.7582 10.4764 16.8309 10.228 16.8828 9.97493C14.3403 7.74368 11.509 6.59993 7.93154 6.83618C7.80179 7.08725 7.6951 7.34957 7.61279 7.61993C11.8503 7.21493 14.9628 9.08993 16.6653 10.7174Z" fill="white"/>
<path d="M15.525 9.4651L15.6112 9.51385C15.5984 9.53931 15.5944 9.56836 15.6 9.59635C15.6088 9.62348 15.6275 9.64627 15.6525 9.6601C15.6787 9.67885 15.705 9.6901 15.7275 9.68635C15.75 9.68635 15.765 9.6751 15.7762 9.6601C15.7828 9.65014 15.7855 9.63814 15.7837 9.62635C15.7807 9.6125 15.7742 9.59961 15.765 9.58885C15.7575 9.5776 15.7387 9.55135 15.7087 9.52135C15.6779 9.48952 15.6548 9.45103 15.6412 9.40885C15.6319 9.37692 15.6343 9.3427 15.6481 9.31241C15.6618 9.28212 15.686 9.25779 15.7162 9.24385C15.7435 9.23246 15.7737 9.22984 15.8025 9.23635C15.8377 9.24447 15.8709 9.25979 15.9 9.28135C15.9525 9.31885 15.9862 9.35635 15.9975 9.40135C16.0027 9.42239 16.0034 9.4443 15.9995 9.46563C15.9956 9.48696 15.9873 9.50722 15.975 9.5251L15.885 9.46885C15.8962 9.44635 15.9 9.42385 15.8925 9.4051C15.8887 9.38635 15.8737 9.3676 15.8475 9.3526C15.8282 9.3371 15.8047 9.32794 15.78 9.32635C15.7732 9.32612 15.7665 9.32774 15.7605 9.33105C15.7546 9.33435 15.7496 9.33921 15.7462 9.3451C15.7387 9.35635 15.7387 9.3676 15.7425 9.3826C15.7462 9.3976 15.765 9.4276 15.8025 9.4651C15.84 9.5026 15.8625 9.53635 15.8775 9.55885C15.8909 9.58342 15.8969 9.61133 15.895 9.63925C15.893 9.66716 15.883 9.69392 15.8662 9.71635C15.8487 9.74184 15.8239 9.76145 15.795 9.7726C15.7669 9.78555 15.7354 9.78947 15.705 9.78385C15.6712 9.77635 15.6375 9.76135 15.6 9.7351C15.5437 9.6976 15.51 9.65635 15.4987 9.61135C15.4865 9.56032 15.4946 9.50654 15.5212 9.46135L15.525 9.4651ZM15.09 9.1801L15.1837 9.22885C15.1721 9.25475 15.1695 9.28378 15.1762 9.31135C15.1858 9.33709 15.2045 9.35843 15.2287 9.37135C15.2587 9.3901 15.2812 9.3976 15.3037 9.39385C15.3262 9.39385 15.3412 9.3826 15.3525 9.36385C15.3582 9.35493 15.3608 9.3444 15.36 9.33385C15.36 9.3226 15.3525 9.3076 15.3412 9.29635C15.322 9.27316 15.302 9.25064 15.2812 9.22885C15.24 9.1876 15.2137 9.15385 15.2062 9.12385C15.2001 9.10455 15.1983 9.08414 15.2009 9.06406C15.2035 9.04398 15.2104 9.02471 15.2212 9.0076C15.2355 8.98446 15.2564 8.96616 15.2812 8.9551C15.307 8.94322 15.3357 8.9393 15.3637 8.94385C15.3984 8.94969 15.4316 8.96244 15.4612 8.98135C15.5175 9.01885 15.5512 9.05635 15.5625 9.0976C15.5693 9.11868 15.5715 9.14098 15.5689 9.16299C15.5663 9.18499 15.559 9.20618 15.5475 9.2251L15.4537 9.1726C15.465 9.14635 15.4687 9.1276 15.4612 9.10885C15.4537 9.0901 15.4387 9.07135 15.4125 9.05635C15.3917 9.04146 15.3668 9.03357 15.3412 9.03385C15.3351 9.03426 15.3291 9.03619 15.3239 9.03946C15.3187 9.04273 15.3143 9.04724 15.3112 9.0526C15.3037 9.06385 15.3037 9.0751 15.3075 9.0901C15.3112 9.1051 15.3337 9.1351 15.3712 9.1726C15.4087 9.2101 15.435 9.2401 15.4462 9.2626C15.4613 9.28611 15.4693 9.31344 15.4693 9.34135C15.4693 9.36926 15.4613 9.39658 15.4462 9.4201C15.4301 9.44626 15.4066 9.46712 15.3787 9.4801C15.3506 9.49305 15.3192 9.49697 15.2887 9.49135C15.2502 9.48482 15.2132 9.47081 15.18 9.4501C15.1315 9.42426 15.0942 9.38157 15.075 9.3301C15.0605 9.28003 15.0659 9.2263 15.09 9.1801ZM14.5575 9.0376L14.8312 8.5876L15.1612 8.79385L15.1162 8.86885L14.8762 8.71885L14.8162 8.8201L15.0412 8.95885L14.9925 9.03385L14.7675 8.8951L14.6925 9.01885L14.9437 9.16885L14.8987 9.24385L14.5612 9.0376H14.5575ZM13.7812 8.4001L13.8225 8.3251L14.025 8.42635L13.9312 8.61385C13.9012 8.62135 13.8637 8.6251 13.8187 8.62135C13.7755 8.61658 13.7336 8.60387 13.695 8.58385C13.6496 8.56174 13.6108 8.52812 13.5825 8.48635C13.5567 8.44754 13.5436 8.40168 13.545 8.3551C13.5469 8.30662 13.5597 8.25919 13.5825 8.21635C13.605 8.17125 13.6386 8.13256 13.68 8.10385C13.7196 8.07644 13.7668 8.06202 13.815 8.0626C13.8525 8.0626 13.89 8.07385 13.935 8.1001C13.995 8.12635 14.0325 8.16385 14.0512 8.2051C14.0707 8.24605 14.0747 8.29268 14.0625 8.33635L13.9612 8.30635C13.9674 8.28123 13.9648 8.25474 13.9537 8.23135C13.9425 8.20885 13.9237 8.19385 13.8937 8.17885C13.8763 8.16887 13.8569 8.1627 13.8368 8.16077C13.8168 8.15883 13.7966 8.16116 13.7775 8.1676C13.74 8.17885 13.7062 8.2126 13.68 8.2651C13.6537 8.3176 13.6425 8.36635 13.6537 8.4076C13.6589 8.42716 13.6683 8.44535 13.6813 8.4609C13.6942 8.47645 13.7104 8.48897 13.7287 8.4976C13.7475 8.50885 13.77 8.51635 13.7925 8.51635C13.8149 8.51974 13.8376 8.51974 13.86 8.51635L13.89 8.45635L13.7812 8.4001ZM10.3987 7.56385L10.4737 7.03885L10.6312 7.0651L10.6725 7.4326L10.8187 7.0951L10.9762 7.1176L10.9012 7.6351L10.8 7.6201L10.8637 7.21135L10.6987 7.6051L10.5975 7.5901L10.5562 7.16635L10.4962 7.57885L10.3987 7.56385ZM9.87 7.5001L9.91874 6.9751L10.305 7.0126L10.2975 7.1026L10.0162 7.07635L10.005 7.18885L10.2675 7.2151L10.2562 7.3051L9.99374 7.27885L9.9825 7.42135L10.275 7.4476L10.2675 7.5376L9.87 7.5001Z" fill="#309E3A"/>
<path d="M8.11906 7.17381C8.11906 7.11756 8.13031 7.07631 8.14531 7.03881C8.15845 7.01214 8.17623 6.98801 8.19781 6.96756C8.21704 6.94816 8.24 6.93285 8.26531 6.92256C8.30281 6.91131 8.34031 6.90381 8.37781 6.90381C8.45656 6.90381 8.51656 6.93381 8.56531 6.97881C8.58851 7.00747 8.60577 7.04048 8.61607 7.07589C8.62637 7.11131 8.62951 7.14842 8.62531 7.18506C8.62531 7.26756 8.59906 7.33506 8.55031 7.38381C8.52525 7.40696 8.49562 7.4246 8.46332 7.43558C8.43102 7.44657 8.39678 7.45064 8.36281 7.44756C8.32929 7.4479 8.29605 7.44142 8.26511 7.42853C8.23417 7.41564 8.20617 7.3966 8.18281 7.37256C8.13614 7.31733 8.11322 7.24588 8.11906 7.17381Z" fill="#309E3A"/>
<path d="M8.22803 7.17372C8.22803 7.22997 8.23928 7.27497 8.26553 7.30872C8.29178 7.33872 8.32553 7.35747 8.37053 7.35747C8.39 7.35883 8.40952 7.35584 8.42769 7.3487C8.44585 7.34157 8.46219 7.33047 8.47553 7.31622C8.50178 7.28622 8.51303 7.24122 8.51678 7.17747C8.51678 7.11747 8.50928 7.07247 8.47928 7.04247C8.46706 7.02736 8.45164 7.01514 8.43413 7.00671C8.41662 6.99828 8.39746 6.99384 8.37803 6.99372C8.3583 6.99309 8.33867 6.99679 8.32053 7.00457C8.30239 7.01234 8.28618 7.024 8.27303 7.03872C8.24303 7.06872 8.23178 7.11372 8.22803 7.17372Z" fill="#F7FFFF"/>
<path d="M8.73779 7.44395L8.74529 6.91895H8.97029C9.02654 6.91895 9.06404 6.92645 9.09029 6.9377C9.11654 6.9452 9.13529 6.96395 9.15029 6.98645C9.16529 7.00895 9.17279 7.03895 9.17279 7.0727C9.17309 7.10877 9.15968 7.14361 9.13529 7.1702C9.10757 7.19616 9.0719 7.21202 9.03404 7.2152L9.09029 7.2602C9.10529 7.2752 9.12404 7.3052 9.14654 7.34645L9.21029 7.45145H9.08279L9.00779 7.33145L8.95529 7.25645C8.9462 7.24613 8.93456 7.23837 8.92154 7.23395C8.90449 7.22897 8.88681 7.22645 8.86904 7.22645H8.84654V7.44395H8.73779Z" fill="#309E3A"/>
<path d="M8.85059 7.14379H8.92559C8.97809 7.14379 9.01184 7.14379 9.02309 7.13629C9.03434 7.13629 9.04559 7.12504 9.05309 7.11754C9.06059 7.11004 9.06434 7.09129 9.06434 7.08004C9.06434 7.05754 9.06059 7.04254 9.04934 7.03504C9.04184 7.02379 9.02684 7.01629 9.01184 7.01254H8.93684L8.85059 7.00879V7.14004V7.14379Z" fill="white"/>
<path d="M9.33753 6.94482L9.53253 6.95607C9.57378 6.95607 9.60753 6.95982 9.63003 6.96732C9.65922 6.97791 9.68509 6.99602 9.70503 7.01982C9.72663 7.04604 9.74202 7.07681 9.75003 7.10982C9.76128 7.14357 9.76503 7.18482 9.76128 7.23357C9.76124 7.27185 9.75491 7.30986 9.74253 7.34607C9.72753 7.38357 9.70503 7.41357 9.67878 7.43607C9.65693 7.45408 9.63129 7.4669 9.60378 7.47357C9.58128 7.48107 9.54753 7.48107 9.51003 7.48107L9.31128 7.46982L9.33753 6.94482Z" fill="#309E3A"/>
<path d="M9.43843 7.03857L9.41968 7.38732H9.56218C9.58093 7.38732 9.59593 7.37982 9.60718 7.36857C9.61843 7.35732 9.62968 7.34232 9.63718 7.31982C9.64468 7.29732 9.65218 7.26357 9.65218 7.22232L9.64843 7.12857C9.64307 7.1088 9.63275 7.09073 9.61843 7.07607C9.60597 7.06355 9.59046 7.0545 9.57343 7.04982C9.54507 7.04351 9.51621 7.03975 9.48718 7.03857H9.43843Z" fill="white"/>
<path d="M11.91 7.88256L12.0337 7.37256L12.1987 7.41006L12.3187 7.44756C12.345 7.46256 12.3675 7.48506 12.3787 7.51881C12.3937 7.54881 12.3937 7.58256 12.3862 7.62381C12.3787 7.65381 12.3675 7.68006 12.3487 7.69881C12.335 7.71528 12.3178 7.72851 12.2983 7.73759C12.2789 7.74666 12.2577 7.75134 12.2362 7.75131C12.21 7.75131 12.1725 7.74381 12.1237 7.73256L12.06 7.71381L12.015 7.90881L11.91 7.88256Z" fill="#309E3A"/>
<path d="M12.1128 7.48486L12.0828 7.62736L12.1391 7.64236C12.1766 7.64986 12.2066 7.65736 12.2216 7.65361C12.2362 7.65159 12.2498 7.64509 12.2605 7.63502C12.2713 7.62495 12.2786 7.61179 12.2816 7.59736C12.2816 7.57861 12.2816 7.56361 12.2741 7.54861C12.2658 7.53337 12.2526 7.52144 12.2366 7.51486L12.1653 7.49611L12.1166 7.48486H12.1128Z" fill="white"/>
<path d="M12.3977 8.02869L12.574 7.53369L12.7802 7.60869C12.8365 7.62744 12.8702 7.64619 12.8927 7.66119C12.9115 7.67994 12.9265 7.69869 12.9302 7.72869C12.934 7.75869 12.9377 7.78494 12.9302 7.81494C12.9152 7.85244 12.8927 7.87869 12.8627 7.89744C12.8327 7.91244 12.7952 7.91619 12.7502 7.90869C12.7652 7.92744 12.7802 7.94619 12.7877 7.96869L12.8177 8.06994L12.8402 8.18619L12.724 8.14494L12.6865 8.00994C12.6796 7.97941 12.6709 7.94935 12.6602 7.91994C12.6552 7.90828 12.6475 7.89798 12.6377 7.88994C12.6302 7.87869 12.6152 7.87119 12.589 7.86369L12.5702 7.85619L12.4952 8.06619L12.3977 8.02869Z" fill="#309E3A"/>
<path d="M12.5999 7.77756L12.6712 7.80381C12.7199 7.82256 12.7499 7.83006 12.7649 7.83006C12.7762 7.83006 12.7874 7.83006 12.7987 7.81881C12.8099 7.81131 12.8174 7.80006 12.8212 7.78506C12.8287 7.77006 12.8287 7.75506 12.8212 7.74006C12.8156 7.72552 12.805 7.71352 12.7912 7.70631L12.7162 7.68006L12.6412 7.65381L12.5962 7.77756H12.5999Z" fill="white"/>
<path d="M13.0127 8.01012C13.0256 7.96621 13.0473 7.92538 13.0765 7.89012C13.0955 7.86749 13.1183 7.84844 13.144 7.83387C13.1672 7.82074 13.1926 7.81185 13.219 7.80762C13.2565 7.80762 13.294 7.80762 13.3352 7.82262C13.3688 7.83091 13.4001 7.84623 13.4273 7.86757C13.4544 7.8889 13.4767 7.91576 13.4927 7.94637C13.5227 8.00637 13.5227 8.07762 13.5002 8.16012C13.4817 8.23099 13.4358 8.29165 13.3727 8.32887C13.3165 8.36262 13.249 8.36637 13.1777 8.34387C13.1443 8.33535 13.113 8.31995 13.0859 8.29864C13.0588 8.27733 13.0364 8.25058 13.0202 8.22012C13.0052 8.18733 12.9968 8.1519 12.9955 8.11587C12.9942 8.07983 13.0001 8.04389 13.0127 8.01012Z" fill="#309E3A"/>
<path d="M13.1177 8.04001C13.1027 8.09626 13.099 8.14501 13.1177 8.18251C13.1365 8.22001 13.1627 8.24251 13.204 8.25751C13.2415 8.26876 13.279 8.26501 13.3165 8.24251C13.354 8.22376 13.3765 8.18251 13.3952 8.12251C13.414 8.06626 13.414 8.02126 13.3952 7.98376C13.3878 7.96597 13.3766 7.95002 13.3623 7.93706C13.3481 7.9241 13.3312 7.91444 13.3127 7.90876C13.2943 7.90239 13.2747 7.90009 13.2553 7.90204C13.2358 7.90398 13.2171 7.91011 13.2002 7.92001C13.1627 7.94251 13.1365 7.98001 13.1177 8.04001Z" fill="white"/>
<path d="M14.0363 8.74137L14.2763 8.27637L14.475 8.37762C14.5125 8.39559 14.5467 8.41967 14.5763 8.44887C14.595 8.46762 14.6063 8.49012 14.6063 8.52012C14.6063 8.55012 14.6063 8.57637 14.5913 8.60262C14.5768 8.63634 14.55 8.6632 14.5163 8.67762C14.4788 8.68512 14.4413 8.68512 14.4 8.67012C14.415 8.69262 14.4225 8.71512 14.43 8.73387C14.4375 8.75637 14.4413 8.79012 14.445 8.83887L14.4525 8.95887L14.34 8.90262L14.325 8.76387C14.3232 8.73241 14.3195 8.7011 14.3138 8.67012C14.3112 8.65609 14.3047 8.64308 14.295 8.63262L14.25 8.60637L14.2313 8.59512L14.13 8.79012L14.0363 8.74137Z" fill="#309E3A"/>
<path d="M14.2684 8.52039L14.3397 8.55789C14.3847 8.58039 14.4147 8.59539 14.4259 8.59539C14.4372 8.59539 14.4522 8.59539 14.4634 8.58789C14.4747 8.58414 14.4822 8.57289 14.4897 8.55789C14.4972 8.54289 14.5009 8.52789 14.4972 8.51289C14.4926 8.49796 14.4834 8.48485 14.4709 8.47539C14.449 8.46192 14.4265 8.44941 14.4034 8.43789L14.3284 8.40039L14.2684 8.52039Z" fill="white"/>
<path d="M15.9785 9.70134C16.0028 9.66278 16.0347 9.6296 16.0723 9.60384C16.0975 9.58769 16.1255 9.57625 16.1548 9.57009C16.182 9.56453 16.2101 9.56453 16.2373 9.57009C16.2748 9.57759 16.3085 9.59258 16.3423 9.61508C16.3715 9.63326 16.3966 9.65733 16.4159 9.68574C16.4353 9.71414 16.4485 9.74628 16.4548 9.78008C16.466 9.84383 16.4473 9.91508 16.4023 9.98633C16.3646 10.0483 16.304 10.0928 16.2335 10.1101C16.2 10.1173 16.1652 10.1174 16.1316 10.1103C16.098 10.1032 16.0663 10.0891 16.0385 10.0688C16.0094 10.0507 15.9843 10.0266 15.9649 9.99818C15.9455 9.96978 15.9323 9.93764 15.926 9.90384C15.9148 9.83634 15.9335 9.76884 15.9785 9.70134Z" fill="#309E3A"/>
<path d="M16.0725 9.76151C16.035 9.81026 16.0237 9.85526 16.0312 9.89651C16.034 9.9155 16.0408 9.93369 16.0511 9.94985C16.0615 9.96602 16.0752 9.97979 16.0912 9.99026C16.1287 10.0165 16.1662 10.024 16.2037 10.0128C16.2412 10.0015 16.2787 9.97526 16.3125 9.92276C16.3462 9.87026 16.3612 9.82526 16.3537 9.78776C16.35 9.75026 16.3275 9.71651 16.2937 9.69026C16.26 9.66401 16.2187 9.66026 16.1812 9.67151C16.1437 9.67901 16.1062 9.70901 16.0687 9.76151H16.0725Z" fill="white"/>
<path d="M11.3175 7.66877L11.4038 7.30127L11.6738 7.36502L11.6625 7.42502L11.4638 7.38002L11.445 7.46252L11.6288 7.50377L11.6138 7.56752L11.43 7.52252L11.4075 7.62377L11.6138 7.67252L11.5988 7.73252L11.3175 7.66877Z" fill="#309E3A"/>
</g>
<defs>
<clipPath id="clip0_5224_9023">
<rect width="24" height="18" rx="1" fill="white"/>
</clipPath>
</defs>
</svg>
