<svg width="24" height="18" viewBox="0 0 24 18" fill="none" xmlns="http://www.w3.org/2000/svg">
<g clip-path="url(#clip0_5224_2765)">
<path fill-rule="evenodd" clip-rule="evenodd" d="M0 0H34.2V1.38517H0V0ZM0 2.77031H34.2V4.15549H0V2.77031ZM0 5.5371H34.2V6.92576H0V5.5371ZM0 8.30741H34.2V9.69259H0V8.30741ZM0 11.0777H34.2V12.4629H0V11.0777ZM0 13.8445H34.2V15.2297H0V13.8445ZM0 16.6148H34.2V18H0V16.6148Z" fill="#BD3D44"/>
<path fill-rule="evenodd" clip-rule="evenodd" d="M0 1.38525H34.2V2.77039H0V1.38525ZM0 4.15553H34.2V5.53718H0V4.15553ZM0 6.92235H34.2V8.30749H0V6.92235ZM0 9.69267H34.2V11.0778H0V9.69267ZM0 12.463H34.2V13.8481H0V12.463ZM0 15.2298H34.2V16.6149H0V15.2298Z" fill="white"/>
<path fill-rule="evenodd" clip-rule="evenodd" d="M0 0H13.6793V9.69259H0V0Z" fill="#192F5D"/>
<path fill-rule="evenodd" clip-rule="evenodd" d="M1.13908 0.415039L1.26564 0.798177H1.66644L1.34297 1.03375L1.46604 1.42045L1.13908 1.18139L0.815643 1.41693L0.93868 1.03375L0.611755 0.798177H1.01957L1.13908 0.415039ZM3.42073 0.415039L3.54377 0.798177H3.94806L3.62109 1.03375L3.74417 1.42045L3.42073 1.18139L3.09377 1.41693L3.21681 1.03375L2.89337 0.798177H3.29417L3.42073 0.415039ZM5.69885 0.415039L5.82542 0.798214H6.22269L5.89926 1.03379L6.02225 1.42049L5.69533 1.18143L5.37189 1.41696L5.49493 1.03379L5.16797 0.798214H5.57229L5.69885 0.415039ZM7.9805 0.415039L8.1035 0.798214H8.50783L8.18087 1.03379L8.30743 1.42049L7.98047 1.18143L7.65354 1.41696L7.7801 1.03379L7.45314 0.798214H7.85394L7.9805 0.415039ZM10.2586 0.415039L10.3852 0.798214H10.786L10.4625 1.03379L10.5856 1.42049L10.2586 1.18143L9.93515 1.41696L10.0582 1.03379L9.73479 0.798214H10.1356L10.2586 0.415039ZM12.5402 0.415039L12.6633 0.798214H13.0676L12.7406 1.03379L12.8672 1.42049L12.5402 1.18143L12.2133 1.41696L12.3398 1.03379L12.0129 0.798214H12.4172L12.5402 0.415039ZM2.28167 1.38528L2.40471 1.76853H2.80899L2.48203 2.00403L2.60158 2.38728L2.28516 2.1517L1.95823 2.38724L2.07422 2.00406L1.75783 1.76849H2.15863L2.28167 1.38528ZM4.55979 1.38528L4.68636 1.76853H5.08712L4.76015 2.00403L4.88675 2.38728L4.55976 2.1517L4.23283 2.38724L4.35939 2.00406L4.03243 1.76849H4.43672L4.55979 1.38528ZM6.84144 1.38528L6.96444 1.76853H7.36877L7.04181 2.00403L7.16484 2.38728L6.8414 2.1517L6.51448 2.38724L6.63752 2.0041L6.31408 1.76853H6.71488L6.84144 1.38528ZM9.11957 1.38528L9.24613 1.76853H9.64689L9.31993 2.00403L9.44649 2.38728L9.11953 2.1517L8.79609 2.38724L8.91917 2.00406L8.5922 1.76849H9.00002L9.11957 1.38528ZM11.4012 1.38528L11.5242 1.76853H11.9285L11.6016 2.00403L11.7246 2.38728L11.4012 2.1517L11.0742 2.38724L11.1973 2.00406L10.8739 1.76849H11.2746L11.4012 1.38528ZM1.13908 2.35218L1.26564 2.7424H1.66644L1.34297 2.97794L1.46604 3.36115L1.13908 3.12209L0.815643 3.36115L0.93868 2.97441L0.611755 2.73891H1.01957L1.13908 2.35218ZM3.42073 2.35218L3.54377 2.7388H3.94806L3.62109 2.97434L3.74417 3.35759L3.42073 3.11849L3.09377 3.35755L3.21681 2.97085L2.89337 2.73531H3.29417L3.42073 2.35218ZM5.69885 2.35218L5.82542 2.73888H6.22269L5.89926 2.97441L6.02225 3.35766L5.69533 3.11856L5.37189 3.35763L5.49493 2.97093L5.16797 2.73539H5.57229L5.69885 2.35218ZM7.9805 2.35218L8.1035 2.73888H8.50783L8.18087 2.97441L8.30743 3.35766L7.98047 3.11856L7.65354 3.35763L7.7801 2.97093L7.45314 2.73539H7.85394L7.9805 2.35218ZM10.2586 2.35218L10.3852 2.73888H10.786L10.4625 2.97438L10.5856 3.35763L10.2586 3.11853L9.93515 3.35759L10.0582 2.97089L9.73479 2.73535H10.1356L10.2586 2.35218ZM12.5402 2.35218L12.6633 2.73888H13.0676L12.7406 2.97441L12.8672 3.35766L12.5402 3.11856L12.2133 3.35763L12.3398 2.97093L12.0129 2.73539H12.4172L12.5402 2.35218ZM2.28167 3.32245L2.40471 3.70566H2.80899L2.48203 3.94116L2.60511 4.3279L2.28167 4.08884L1.95471 4.32438L2.07774 3.9412L1.75431 3.70566H2.15514L2.28167 3.32245ZM4.55979 3.32245L4.68636 3.70566H5.08712L4.76015 3.94116L4.88675 4.3279L4.55976 4.08884L4.23283 4.32438L4.35939 3.9412L4.03243 3.70566H4.43672L4.55979 3.32245ZM6.84144 3.32245L6.96444 3.70566H7.36877L7.04181 3.94116L7.16484 4.3279L6.8414 4.08884L6.51448 4.32438L6.63752 3.9412L6.31408 3.70566H6.71488L6.84144 3.32245ZM9.11957 3.32245L9.24613 3.70566H9.64689L9.32345 3.94116L9.44649 4.3279L9.11953 4.08884L8.79609 4.32438L8.91917 3.9412L8.5922 3.70566H9.00002L9.11957 3.32245ZM11.4012 3.32245L11.5242 3.70566H11.9285L11.6016 3.94116L11.7246 4.3279L11.4012 4.08884L11.0742 4.32438L11.1973 3.9412L10.8739 3.70566H11.2746L11.4012 3.32245ZM1.13908 4.29276L1.26564 4.67598H1.66644L1.34297 4.91148L1.46604 5.29821L1.13908 5.05915L0.815643 5.29469L0.93868 4.91151L0.611755 4.67598H1.01957L1.13908 4.29276ZM3.42073 4.29276L3.54377 4.67598H3.94806L3.62109 4.91148L3.74417 5.29473L3.42073 5.05915L3.09377 5.29469L3.21681 4.91151L2.89337 4.67598H3.29417L3.42073 4.29276ZM5.69885 4.29276L5.82542 4.67598H6.22269L5.89926 4.91148L6.02225 5.29821L5.69533 5.05915L5.37189 5.29469L5.49493 4.91151L5.16797 4.67598H5.57229L5.69885 4.29276ZM7.9805 4.29276L8.1035 4.67598H8.50783L8.18087 4.91148L8.30743 5.29821L7.98047 5.05915L7.65354 5.29469L7.7801 4.91151L7.45314 4.67598H7.85394L7.9805 4.29276ZM10.2586 4.29276L10.3852 4.67598H10.786L10.4625 4.91148L10.5856 5.29821L10.2586 5.05915L9.93515 5.29469L10.0582 4.91151L9.73479 4.67598H10.1356L10.2586 4.29276ZM12.5402 4.29276L12.6633 4.67598H13.0676L12.7406 4.91148L12.8672 5.29821L12.5402 5.05915L12.2133 5.29469L12.3398 4.91151L12.0129 4.67598H12.4172L12.5402 4.29276ZM2.28167 5.26308L2.40471 5.64629H2.80899L2.48203 5.88179L2.60511 6.26504L2.28167 6.02598L1.95471 6.26504L2.07774 5.8783L1.75431 5.64276H2.15514L2.28167 5.26308ZM4.55979 5.26308L4.68636 5.64629H5.08712L4.76015 5.88179L4.88675 6.26504L4.55976 6.02598L4.23283 6.26504L4.35939 5.8783L4.03243 5.64276H4.43672L4.55979 5.26308ZM6.84144 5.26308L6.96444 5.64629H7.36877L7.04181 5.88179L7.16484 6.26504L6.8414 6.02598L6.51448 6.26504L6.63752 5.8783L6.31408 5.64276H6.71488L6.84144 5.26308ZM9.11957 5.26308L9.24613 5.64629H9.64689L9.32345 5.88179L9.44649 6.26504L9.11953 6.02598L8.79609 6.26504L8.91917 5.8783L8.5922 5.64276H9.00002L9.11957 5.26308ZM11.4012 5.26308L11.5242 5.64629H11.9285L11.6016 5.88179L11.7246 6.26504L11.4012 6.02598L11.0742 6.26504L11.1973 5.8783L10.8739 5.64276H11.2746L11.4012 5.26308ZM1.13908 6.22986L1.26564 6.6166H1.66644L1.34297 6.8521L1.46604 7.23183L1.13908 6.99629L0.815643 7.23179L0.93868 6.84861L0.611755 6.61308H1.01957L1.13908 6.22986ZM3.42073 6.22986L3.54377 6.6166H3.94806L3.62109 6.8521L3.74769 7.23183L3.42069 6.99629L3.09377 7.23179L3.22033 6.84861L2.89337 6.61308H3.29417L3.42073 6.22986ZM5.69885 6.22986L5.82542 6.6166H6.22269L5.89926 6.8521L6.02225 7.23183L5.69533 6.99629L5.37189 7.23179L5.49493 6.84861L5.16797 6.61308H5.57229L5.69885 6.22986ZM7.9805 6.22986L8.1035 6.6166H8.50783L8.18087 6.8521L8.30743 7.23183L7.98047 6.99629L7.65354 7.23179L7.7801 6.84861L7.45314 6.61308H7.85394L7.9805 6.22986ZM10.2586 6.22986L10.3852 6.6166H10.786L10.4625 6.8521L10.5856 7.23183L10.2586 6.99629L9.93515 7.23179L10.0582 6.84861L9.73479 6.61308H10.1356L10.2586 6.22986ZM12.5402 6.22986L12.6633 6.6166H13.0676L12.7406 6.8521L12.8672 7.23183L12.5402 6.99629L12.2133 7.23179L12.3398 6.84861L12.0129 6.61308H12.4172L12.5402 6.22986ZM2.28167 7.20018L2.40471 7.58339H2.80899L2.48203 7.81893L2.60511 8.20566L2.28167 7.9666L1.95471 8.2021L2.07774 7.81893L1.75431 7.58339H2.15514L2.28167 7.20018ZM4.55979 7.20018L4.68636 7.58339H5.08712L4.76015 7.81893L4.88675 8.20566L4.55976 7.9666L4.23283 8.2021L4.35939 7.81893L4.03243 7.58339H4.43672L4.55979 7.20018ZM6.84144 7.20018L6.96444 7.58339H7.36877L7.04181 7.81893L7.16484 8.20566L6.8414 7.9666L6.51448 8.2021L6.63752 7.81893L6.31408 7.58339H6.71488L6.84144 7.20018ZM9.11957 7.20018L9.24613 7.58339H9.64689L9.32345 7.81893L9.44649 8.20566L9.11953 7.9666L8.79609 8.2021L8.91917 7.81893L8.5922 7.58339H9.00002L9.11957 7.20018ZM11.4012 7.20018L11.5242 7.58339H11.9285L11.6016 7.81893L11.7246 8.20566L11.4012 7.9666L11.0742 8.2021L11.1973 7.81893L10.8739 7.58339H11.2746L11.4012 7.20018ZM1.13908 8.17049L1.26564 8.5537H1.66644L1.34297 8.78924L1.46604 9.17245L1.13908 8.93691L0.815643 9.17241L0.93868 8.78571L0.611755 8.55018H1.01957L1.13908 8.17049ZM3.42073 8.17049L3.54377 8.5537H3.94806L3.62109 8.78924L3.74769 9.17245L3.42069 8.93691L3.09377 9.17241L3.22033 8.78571L2.89337 8.55018H3.29417L3.42073 8.17049ZM5.69885 8.17049L5.82542 8.5537H6.22269L5.90627 8.78924L6.0293 9.17245L5.70234 8.93691L5.3789 9.17241L5.50198 8.78571L5.17502 8.55018H5.57931L5.69885 8.17049ZM7.9805 8.17049L8.1035 8.5537H8.50783L8.18087 8.78924L8.30743 9.17245L7.98047 8.93691L7.65354 9.17241L7.7801 8.78571L7.45314 8.55018H7.85394L7.9805 8.17049ZM10.2586 8.17049L10.3852 8.5537H10.786L10.4625 8.78924L10.5856 9.17245L10.2586 8.93691L9.93515 9.17241L10.0582 8.78571L9.73479 8.55018H10.1356L10.2586 8.17049ZM12.5402 8.17049L12.6633 8.5537H13.0676L12.7406 8.78924L12.8672 9.17245L12.5402 8.93691L12.2133 9.17241L12.3398 8.78571L12.0129 8.55018H12.4172L12.5402 8.17049Z" fill="white"/>
</g>
<defs>
<clipPath id="clip0_5224_2765">
<rect width="24" height="18" rx="1" fill="white"/>
</clipPath>
</defs>
</svg>
